<svg width="25" height="19" viewBox="0 0 25 19" fill="none" xmlns="http://www.w3.org/2000/svg">
<g id="Group 51">
<g id="Group 47">
<path id="Vector" d="M0.422363 0.41748H24.5823V2.61384H0.422363V0.41748ZM0.422363 15.792H24.5823V17.9884H0.422363V15.792ZM20.8727 12.403L20.6816 11.4476H18.5412L18.2008 12.3953L16.4854 12.3986C17.5891 9.75641 18.4073 7.79725 18.941 6.52556C19.0804 6.19281 19.3286 6.02369 19.6932 6.02589C19.9722 6.02808 20.4279 6.02808 21.0605 6.02589L22.386 12.4008L20.8727 12.4041V12.403ZM19.0233 10.1386H20.4027L19.8865 7.74454L19.0233 10.1386ZM7.96906 6.02479L9.6932 6.02699L7.02792 12.403L5.28181 12.4019C4.69209 10.1287 4.25831 8.44188 3.98157 7.3448C3.89701 7.00766 3.72898 6.77265 3.40392 6.66173C3.1151 6.5629 2.6341 6.40915 1.95982 6.2016V6.02589H4.71515C5.19176 6.02589 5.4696 6.25651 5.55965 6.72872L6.24052 10.3406L7.96906 6.02479ZM12.062 6.02699L10.7002 12.4019L9.05845 12.3997L10.4202 6.02479L12.062 6.02699ZM15.3917 5.90838C15.8814 5.90838 16.5008 6.05993 16.8566 6.2016L16.5689 7.52381C16.2471 7.39422 15.7178 7.21961 15.2731 7.2273C14.6251 7.23718 14.2254 7.50843 14.2254 7.7687C14.2254 8.1904 14.9194 8.40345 15.6355 8.86578C16.4514 9.39291 16.5579 9.86513 16.548 10.3791C16.5371 11.4454 15.6355 12.4975 13.7323 12.4975C12.8636 12.4843 12.5507 12.4118 11.8434 12.1614L12.1421 10.7821C12.8625 11.083 13.1689 11.1785 13.7839 11.1785C14.3495 11.1785 14.8338 10.9512 14.8382 10.5548C14.8404 10.2726 14.668 10.1331 14.0343 9.78386C13.4007 9.43574 12.5133 8.95364 12.5243 7.98285C12.5386 6.7419 13.7191 5.90838 15.3917 5.90838Z" fill="#001374"/>
</g>
<rect id="Rectangle 84" x="0.422363" y="15.4727" width="24.2193" height="2.61831" fill="#F79E1B"/>
</g>
</svg>
